<?xml version="1.0" standalone="no"?>
<!DOCTYPE svg PUBLIC "-//W3C//DTD SVG 20010904//EN"
 "http://www.w3.org/TR/2001/REC-SVG-20010904/DTD/svg10.dtd">
<svg version="1.0" xmlns="http://www.w3.org/2000/svg"
 width="554.000000pt" height="554.000000pt" viewBox="0 0 554.000000 554.000000"
 preserveAspectRatio="xMidYMid meet">
<metadata>
Created by potrace 1.14, written by Peter Selinger 2001-2017
</metadata>
<g transform="translate(0.000000,554.000000) scale(0.100000,-0.100000)"
fill="#000000" stroke="none">
<path d="M2560 5474 c-550 -50 -1049 -244 -1469 -572 -111 -87 -304 -274 -396
-383 -845 -1008 -845 -2470 0 -3478 40 -48 129 -141 198 -207 413 -400 916
-643 1512 -730 167 -25 543 -25 710 0 401 59 751 185 1080 388 315 196 655
536 852 853 622 1002 533 2274 -222 3174 -92 109 -285 296 -396 383 -371 289
-810 478 -1279 549 -130 19 -478 33 -590 23z m560 -179 c384 -59 738 -195
1045 -400 399 -266 723 -651 914 -1083 428 -967 221 -2080 -525 -2826 -661
-660 -1604 -902 -2503 -644 -192 55 -195 57 -208 179 -7 66 14 288 29 306 6 7
56 35 113 62 186 89 205 121 212 356 6 172 2 163 108 235 135 92 173 149 160
238 -4 26 -30 106 -57 177 -77 198 -75 300 9 472 38 77 66 111 162 192 60 50
108 127 117 189 9 62 -17 122 -76 175 -45 40 -79 57 -235 112 -65 24 -106 66
-135 140 -21 53 -25 84 -31 265 -10 274 -24 433 -44 500 -27 89 -93 207 -138
245 -76 66 -142 66 -235 3 -90 -62 -159 -81 -204 -57 -11 6 -48 33 -81 60 -79
64 -143 87 -275 99 -128 11 -163 21 -223 59 -47 30 -80 82 -94 149 -6 31 -3
37 77 113 424 408 937 639 1563 703 88 9 454 -4 555 -19z"/>
<path d="M4076 3523 c-4 -5 -98 -8 -209 -9 -189 -1 -207 -3 -274 -26 -88 -31
-147 -74 -244 -175 -85 -90 -217 -260 -247 -318 -35 -70 -50 -146 -56 -287 -7
-160 4 -208 71 -323 67 -113 106 -163 147 -187 21 -13 82 -52 135 -87 121 -81
170 -100 279 -107 75 -5 113 -1 272 30 102 20 208 43 235 51 54 15 99 55 152
135 17 25 67 90 112 145 44 54 98 131 118 170 l38 70 0 205 c0 204 0 205 -33
301 -52 156 -107 227 -255 333 -87 62 -216 104 -241 79z"/>
</g>
</svg>
