<svg fill="none" height="98" viewBox="0 0 27 98" width="27" xmlns="http://www.w3.org/2000/svg"><g fill="#212121"><path d="m10.843.967728c.6197-.619698 1.46-.967728 2.3366-.967728s1.7169.348065 2.3367.967728l9.9152 9.915272c.6376.6159 1.0012 1.4621 1.0091 2.3486.0076.8862-.3412 1.7386-.9681 2.3655-.6269.627-1.4793.9757-2.3655.9681-.8866-.0079-1.7328-.3714-2.3487-1.009l-4.2735-4.2735v64.7336c0 1.1809-.63 2.2719-1.6525 2.8624-1.0226.5905-2.2826.5905-3.3051 0-1.0226-.5904-1.65255-1.6814-1.65255-2.8624v-64.7336l-4.27351 4.2735c-.83934.8107-2.0443 1.1188-3.16979.8101-1.12575-.3085-2.005077-1.1878-2.313551-2.3136-.308818-1.1255-.000688-2.3304.810088-3.1698z"/><path d="m25.5129 86.7843-9.9152 9.9152c-.6197.6197-1.46.9677-2.3366.9677s-1.7169-.348-2.3367-.9677l-9.91521-9.9152c-.637611-.6159-1.00113805-1.4622-1.00907032-2.3487-.00757417-.8862.34118132-1.7386.96808032-2.3655.62693-.6269 1.47935-.9757 2.36556-.9681.88655.0079 1.73273.3715 2.34862 1.0091l4.27352 4.2735-.00001-64.7337c0-1.1808.63001-2.2719 1.65251-2.8624 1.0226-.5904 2.2826-.5904 3.3051 0 1.0226.5904 1.6525 1.6815 1.6525 2.8624l.0001 64.7337 4.2735-4.2735c.8393-.8108 2.0443-1.1189 3.1698-.8101 1.1257.3085 2.005 1.1878 2.3135 2.3135.3088 1.1255.0007 2.3304-.8101 3.1698z"/></g></svg>